<?xml version="1.0" encoding="UTF-8"?>
<svg id="Layer_2" data-name="Layer 2" xmlns="http://www.w3.org/2000/svg" viewBox="0 0 264.92 188.46">
  <defs>
    <style>
      .cls-1 {
        fill: #231f20;
      }
    </style>
  </defs>
  <g id="Layer_1-2" data-name="Layer 1">
    <path class="cls-1" d="M60.56,185.28c-.92,0-1.83-.03-2.75-.08-17.15-1.04-32.57-11.68-43.43-29.96C3.81,137.45-1.21,114.42.25,90.4S9.47,44.13,22.11,27.75C35.1,10.92,51.7,2.22,68.84,3.26c17.15,1.04,32.57,11.68,43.43,29.96,10.57,17.79,15.58,40.81,14.13,64.83h0c-1.46,24.02-9.22,46.27-21.86,62.65-12.29,15.93-27.82,24.57-43.98,24.57ZM66.12,11.18c-13.64,0-26.94,7.55-37.67,21.46-11.67,15.12-18.85,35.81-20.21,58.25-1.36,22.44,3.26,43.84,13.02,60.26,9.46,15.93,22.62,25.18,37.04,26.06,14.42.88,28.59-6.72,39.91-21.39,11.67-15.12,18.85-35.81,20.21-58.25,1.36-22.44-3.26-43.84-13.02-60.26-9.46-15.93-22.62-25.18-37.04-26.06-.75-.05-1.5-.07-2.24-.07Z"/>
    <path class="cls-1" d="M205.28,188.46c-15.29,0-30.54-7.35-43.62-21.19-14.82-15.68-25.15-37.95-29.07-62.69-3.92-24.75-.99-49.11,8.26-68.61C150.35,15.96,165.34,3.4,183.08.59c17.74-2.81,35.88,4.5,51.09,20.6,14.82,15.68,25.14,37.95,29.07,62.69,3.92,24.75.99,49.11-8.26,68.61-9.49,20.01-24.48,32.57-42.22,35.38-2.48.39-4.98.59-7.47.59ZM190.49,8.01c-2.06,0-4.12.16-6.17.48-15.05,2.38-27.92,13.36-36.24,30.91-8.56,18.06-11.26,40.76-7.59,63.93,7.49,47.28,39.35,81.66,71,76.64,15.05-2.38,27.92-13.36,36.24-30.91,8.56-18.05,11.26-40.76,7.59-63.93h0c-3.67-23.17-13.25-43.93-26.98-58.45-11.53-12.19-24.76-18.68-37.86-18.68Z"/>
    <ellipse class="cls-1" cx="44.76" cy="124.56" rx="18.57" ry="30.33"/>
    <ellipse class="cls-1" cx="178.59" cy="124.56" rx="19.32" ry="30.33"/>
  </g>
</svg>